<?xml version="1.0" standalone="no"?>
<!DOCTYPE svg PUBLIC "-//W3C//DTD SVG 20010904//EN"
 "http://www.w3.org/TR/2001/REC-SVG-20010904/DTD/svg10.dtd">
<svg version="1.0" xmlns="http://www.w3.org/2000/svg"
 width="728.000000pt" height="641.000000pt" viewBox="0 0 728.000000 641.000000"
 preserveAspectRatio="xMidYMid meet">
<metadata>
Created by potrace 1.16, written by Peter Selinger 2001-2019
</metadata>
<g transform="translate(0.000000,641.000000) scale(0.100000,-0.100000)"
fill="#009900" stroke="none">
<path d="M3400 6142 c0 -7 -11 -12 -25 -12 -14 0 -28 -7 -32 -16 -5 -13 -8
-13 -15 -2 -7 10 -11 10 -15 1 -2 -7 -11 -13 -19 -13 -8 0 -14 -7 -14 -15 0
-8 -3 -15 -8 -15 -14 0 -33 -41 -27 -61 7 -20 58 -28 69 -10 11 17 63 19 131
4 56 -12 73 -20 82 -39 6 -13 8 -26 5 -27 -4 -2 -47 -5 -97 -6 -101 -2 -137
-11 -210 -53 -27 -16 -57 -33 -65 -37 -8 -5 -17 -19 -18 -32 -2 -13 -8 -28
-13 -33 -10 -11 17 -46 36 -46 7 0 20 -11 29 -25 19 -29 85 -65 118 -65 19 0
20 2 8 11 -12 9 -12 10 3 5 10 -3 26 -6 35 -6 15 0 15 -2 2 -10 -25 -16 74
-11 181 9 57 10 123 31 163 51 55 26 76 31 111 28 39 -5 52 -14 123 -87 44
-44 85 -81 91 -81 6 0 35 -11 65 -25 42 -19 71 -25 125 -25 38 0 73 5 76 10 4
6 -15 10 -49 10 -31 0 -56 5 -56 10 0 6 17 10 38 10 39 0 92 19 92 33 0 4 8 7
17 7 15 0 15 1 1 13 -9 6 -25 29 -36 49 -10 21 -22 35 -25 32 -3 -4 -27 4 -52
16 -25 12 -52 19 -60 16 -8 -3 -15 -1 -15 5 0 6 -4 7 -10 4 -5 -3 -10 1 -10 9
0 22 69 21 115 -1 30 -14 38 -15 45 -4 11 19 2 39 -21 46 -10 4 -19 11 -19 16
0 5 -3 8 -7 8 -31 -5 -62 3 -57 14 7 20 121 59 128 44 3 -9 5 -9 5 1 1 6 11
12 24 13 l22 0 -22 16 c-13 8 -23 22 -23 30 0 8 -5 11 -10 8 -6 -3 -13 0 -16
9 -3 8 -12 12 -20 9 -8 -3 -14 1 -14 8 0 11 -3 11 -10 -1 -9 -13 -11 -13 -20
0 -8 13 -10 12 -10 -4 0 -15 -3 -16 -15 -6 -12 10 -16 9 -21 -4 -4 -10 -13
-15 -20 -12 -7 3 -16 -4 -19 -14 -3 -11 -9 -19 -13 -18 -4 1 -27 -8 -50 -21
-24 -12 -46 -20 -49 -17 -5 4 -20 0 -98 -30 -11 -4 -28 -6 -37 -5 -9 1 -26 -7
-37 -18 -22 -22 -51 -28 -51 -11 0 5 -14 17 -32 26 -41 21 -47 28 -83 97 -16
32 -34 58 -40 59 -11 2 -24 12 -58 43 -37 34 -100 79 -132 95 -16 8 -38 21
-47 29 -12 9 -18 10 -18 3z"/>
<path d="M6017 6123 c-12 -12 -7 -88 7 -108 23 -35 26 -92 7 -168 -25 -98 -35
-178 -20 -153 9 15 13 16 21 5 7 -10 8 -5 5 16 -3 17 -2 59 2 95 7 71 16 79
60 51 32 -21 161 -20 219 1 49 18 60 10 32 -25 -11 -14 -20 -29 -20 -34 0 -14
-69 -53 -94 -53 -14 0 -27 -4 -30 -9 -9 -13 26 -23 38 -11 5 5 16 10 23 10 10
0 11 -5 3 -19 -14 -27 -13 -29 13 -33 14 -2 23 -11 25 -25 4 -29 46 -57 60
-40 8 11 19 46 22 72 1 6 7 17 14 25 16 20 39 114 29 117 -5 2 -7 22 -5 46 2
35 1 39 -9 23 -7 -11 -9 -34 -5 -59 11 -67 -44 -178 -68 -139 -3 5 3 42 14 84
17 68 18 177 1 150 -3 -6 -20 -14 -36 -18 -26 -6 -28 -5 -18 8 7 8 10 18 7 21
-3 3 3 16 15 28 25 28 30 95 6 85 -8 -3 -15 0 -15 6 0 6 -8 4 -18 -5 -11 -10
-35 -17 -60 -17 -22 0 -43 -4 -46 -8 -3 -5 -28 -9 -57 -10 -31 0 -56 -6 -60
-14 -7 -10 -9 -9 -9 4 0 10 -10 26 -21 37 -12 11 -21 31 -21 45 0 28 -1 29
-11 19z"/>
<path d="M870 5965 c-6 -31 -9 -64 -5 -73 4 -9 6 -71 6 -138 -1 -95 3 -134 19
-185 23 -74 25 -109 8 -109 -21 1 -131 239 -130 280 1 35 -15 90 -27 90 -3 0
-7 -19 -8 -42 -3 -49 -30 -83 -76 -93 -49 -12 -176 -8 -192 5 -12 10 -15 7
-21 -14 l-6 -26 -23 34 c-13 19 -25 42 -28 53 -4 16 -5 16 -6 -2 0 -11 6 -31
14 -45 21 -37 121 -242 128 -263 4 -10 3 -15 -2 -12 -10 6 -26 -33 -18 -42 13
-12 -25 -90 -51 -105 -34 -19 -129 -31 -138 -17 -3 6 -25 10 -48 9 -22 -1 -47
-1 -53 -1 -20 1 -15 18 5 23 12 3 23 22 32 52 14 51 76 116 110 116 11 0 20 4
20 10 0 6 -10 6 -27 -1 -84 -32 -163 -111 -156 -157 4 -26 4 -26 -11 -8 -28
35 -17 0 12 -37 15 -19 45 -59 68 -89 23 -29 49 -60 59 -68 34 -28 75 -93 75
-119 0 -53 -12 -57 -87 -33 -41 13 -90 22 -123 21 l-55 -1 47 -8 c53 -9 106
-37 157 -84 30 -28 33 -29 28 -9 -3 15 0 23 12 25 25 5 101 -34 101 -52 0 -37
-32 -119 -59 -154 l-29 -36 6 65 c4 53 2 65 -10 65 -18 0 -41 -47 -31 -62 4
-7 0 -9 -10 -5 -11 4 -17 1 -17 -9 0 -8 -4 -12 -10 -9 -5 3 -22 -1 -38 -9 -16
-8 -38 -13 -49 -10 -12 3 -24 1 -27 -5 -4 -6 -17 -11 -29 -11 -16 0 -23 6 -24
23 -3 42 20 108 43 126 31 24 31 36 0 16 -13 -9 -34 -36 -47 -60 -14 -26 -29
-43 -36 -40 -7 2 -12 1 -12 -3 1 -4 1 -18 0 -31 -1 -24 -1 -24 -16 -5 -8 10
-15 15 -15 10 0 -5 -10 -1 -21 10 -22 19 -22 19 -11 -1 13 -24 48 -55 63 -55
5 0 8 -4 5 -8 -2 -4 18 -21 46 -36 45 -25 57 -28 109 -22 l59 6 68 -64 c149
-140 163 -149 193 -119 7 7 0 10 -22 11 -35 1 -54 12 -20 12 52 0 167 106 202
185 12 28 34 68 49 90 15 22 49 83 76 135 26 52 56 106 66 119 10 13 18 28 18
34 0 19 -69 -68 -101 -128 -18 -33 -38 -64 -46 -68 -7 -4 -13 -18 -13 -30 0
-29 -58 -144 -99 -195 -18 -22 -46 -46 -62 -52 -16 -7 -29 -19 -29 -26 0 -8
-7 -14 -15 -14 -8 0 -15 -5 -15 -11 0 -8 -5 -7 -15 1 -9 7 -18 10 -22 6 -3 -3
-1 -6 5 -6 20 0 13 -17 -8 -23 -11 -3 -26 1 -34 8 -7 8 -17 11 -20 8 -4 -4 -5
4 -3 17 3 16 12 27 28 30 23 6 22 7 -13 24 -46 22 -49 44 -14 107 21 39 24 55
22 142 -2 71 1 101 11 109 7 6 13 30 13 53 0 39 4 47 49 84 27 23 62 62 76 87
23 39 27 55 23 102 l-5 55 58 25 58 25 -34 18 c-19 11 -42 19 -51 19 -23 0
-84 64 -84 88 0 13 20 27 69 50 38 18 83 48 99 66 l30 35 11 -27 c5 -15 15
-46 22 -69 7 -23 16 -40 22 -36 5 3 6 -3 3 -15 -4 -11 -2 -29 5 -40 11 -17 15
-15 56 25 37 37 42 47 32 59 -10 13 -10 17 2 25 10 6 10 9 2 9 -7 0 -13 12
-14 28 0 24 -1 24 -8 7 -6 -14 -9 -4 -9 33 -1 34 3 52 11 52 60 2 170 15 205
25 43 13 47 11 43 -24 -2 -7 2 -10 7 -7 11 6 22 -39 22 -89 0 -17 20 -72 45
-123 41 -84 65 -118 65 -93 0 5 -5 13 -10 16 -21 13 -61 111 -76 185 -9 41
-22 90 -30 109 -8 18 -14 49 -14 69 0 19 -5 52 -12 74 -9 29 -9 41 0 50 7 7
11 38 11 73 -1 33 -4 51 -6 40 -7 -29 -22 -45 -37 -39 -8 3 -20 -2 -29 -10
-18 -18 -93 -21 -144 -7 -18 5 -35 6 -38 1 -11 -18 -52 35 -53 69 -1 52 -9 47
-22 -14z m290 -180 c-11 -13 -10 -14 4 -9 15 6 15 3 5 -20 -9 -19 -15 -23 -20
-14 -6 9 -9 8 -14 -4 -4 -10 -24 -19 -51 -23 -24 -3 -44 -10 -44 -14 0 -13
-93 9 -112 27 -14 12 -15 18 -6 29 8 10 9 16 1 21 -6 4 33 5 87 4 58 -2 106 1
117 7 10 6 24 11 32 11 11 0 11 -3 1 -15z m-535 -516 c10 -19 12 -35 5 -55 -5
-16 -12 -41 -15 -56 -3 -16 -12 -28 -20 -28 -8 0 -15 -4 -15 -8 0 -21 -51 -32
-96 -21 -68 17 -72 37 -15 86 48 42 106 136 95 156 -11 23 47 -48 61 -74z"/>
<path d="M2685 5995 c-24 -14 -48 -22 -60 -19 l-20 6 20 -20 c15 -15 43 -24
105 -32 120 -15 162 -33 215 -92 27 -30 45 -44 45 -34 0 9 5 16 10 16 6 0 10
6 10 13 -1 18 -87 80 -101 71 -8 -4 -9 -3 -5 4 7 11 -6 17 -27 13 -5 -1 -6 3
-3 7 7 12 -107 92 -131 92 -10 0 -36 -11 -58 -25z"/>
<path d="M6786 5841 c-16 -24 -25 -28 -57 -25 -31 3 -49 -5 -104 -41 -37 -25
-71 -42 -77 -39 -6 4 -5 10 3 15 9 6 2 7 -17 3 -24 -5 -37 -1 -52 14 -28 28
-54 12 -28 -17 10 -11 23 -18 28 -15 5 3 20 -1 33 -10 13 -9 38 -16 55 -16 16
0 30 -4 30 -10 0 -13 -22 -13 -56 0 -40 16 -42 3 -6 -31 18 -16 32 -36 32 -44
0 -7 -20 -33 -44 -57 -39 -39 -42 -46 -27 -56 13 -9 14 -13 3 -20 -12 -8 -11
-14 2 -38 13 -25 22 -20 17 9 -1 5 6 7 16 5 13 -2 19 -16 23 -51 3 -26 10 -49
15 -50 6 -1 9 -6 7 -12 -7 -19 9 -75 21 -75 14 0 47 -35 47 -49 0 -6 -5 -22
-12 -38 -6 -15 -19 -49 -28 -75 -17 -48 -17 -48 5 -48 11 0 27 6 34 13 11 10
14 10 18 0 7 -20 20 -15 59 22 40 40 62 46 40 13 -16 -25 -21 -85 -13 -158 2
-25 3 -37 0 -27 -13 52 -41 -35 -28 -92 6 -30 40 -49 49 -27 7 17 7 -55 0 -81
-5 -19 -9 -21 -26 -12 -17 9 -18 8 -10 -8 9 -17 7 -18 -24 -15 -19 2 -37 8
-40 13 -3 5 -11 9 -17 9 -7 0 -1 -9 12 -19 l23 -18 -25 -24 c-13 -13 -33 -29
-43 -36 -11 -6 -18 -17 -16 -23 2 -7 -3 -10 -12 -7 -8 3 -20 -1 -26 -9 -7 -8
-18 -14 -26 -14 -7 0 -19 -6 -26 -12 -49 -47 -189 -85 -238 -65 -14 6 -35 12
-48 13 -13 2 -42 17 -64 33 -23 17 -49 31 -57 31 -14 1 -13 2 1 10 12 8 26 4
54 -15 20 -14 42 -25 48 -25 20 0 -40 48 -99 79 -32 17 -50 31 -41 31 9 0 16
8 16 18 0 10 -3 13 -8 6 -10 -16 -49 -27 -56 -16 -3 6 3 12 14 15 11 3 20 9
20 14 0 10 -80 36 -88 28 -3 -3 3 -5 14 -6 18 0 18 -1 -1 -9 -11 -5 -31 -9
-45 -9 -22 0 -23 1 -5 8 17 7 15 8 -10 14 -17 3 -38 9 -47 12 -13 5 -18 2 -18
-9 0 -24 -17 -19 -36 9 -9 14 -23 25 -30 25 -8 0 -14 5 -14 10 0 6 -7 10 -15
10 -8 0 -15 6 -15 13 0 14 -80 114 -80 101 0 -5 -6 0 -12 11 -14 23 -17 65 -6
65 4 0 8 -4 8 -10 0 -14 17 -12 23 3 3 8 -3 14 -15 14 -28 2 -35 12 -18 23 8
5 19 5 25 0 15 -13 96 55 124 102 21 37 21 38 2 68 l-18 31 -27 -31 c-28 -34
-65 -36 -51 -2 12 27 18 72 10 72 -21 0 -95 -59 -104 -82 -7 -21 -17 -28 -38
-29 -15 -1 -40 -3 -55 -5 -16 -1 -28 2 -28 7 0 6 5 7 10 4 6 -3 10 -2 10 3 0
5 -14 15 -31 22 -26 11 -32 11 -40 -1 -7 -10 -9 -8 -7 11 1 14 -5 36 -15 50
-11 16 -17 19 -18 10 -2 -35 -17 40 -18 92 -1 51 3 61 30 93 42 48 27 45 -22
-5 -31 -31 -39 -47 -39 -76 0 -63 30 -146 66 -182 19 -19 34 -36 34 -38 0 -9
75 -104 82 -104 4 0 18 -12 32 -27 22 -24 27 -25 43 -12 16 13 17 12 5 -3 -12
-15 -8 -24 28 -72 24 -31 47 -56 52 -56 13 0 27 -43 18 -55 -9 -11 -4 -90 6
-106 3 -5 -2 -12 -11 -15 -12 -5 -13 -10 -5 -20 9 -9 7 -22 -5 -48 -10 -20
-22 -36 -27 -36 -5 0 -6 -4 -3 -10 3 -5 2 -10 -3 -10 -5 0 -9 -6 -9 -12 0 -7
-5 -40 -12 -72 -7 -41 -8 -71 -1 -97 6 -21 8 -53 6 -72 -2 -20 -1 -51 4 -71 5
-25 4 -35 -4 -33 -6 1 -12 -16 -14 -43 -2 -24 -9 -48 -15 -52 -8 -5 -8 -8 3
-8 13 0 13 -1 0 -10 -22 -14 -40 -12 -40 5 0 8 -8 15 -17 15 -14 0 -15 2 -5 9
10 6 10 10 -2 20 -10 9 -16 9 -21 1 -5 -8 -10 -7 -18 3 -7 7 -31 19 -55 26
-23 7 -40 16 -37 21 4 6 1 10 -4 10 -6 0 -11 7 -11 15 0 8 -5 15 -11 15 -6 0
-9 -9 -6 -20 5 -21 -7 -25 -37 -14 -17 7 -22 34 -6 34 6 0 10 5 10 10 0 6 -11
10 -24 10 -17 0 -26 8 -34 33 l-10 32 -1 -30 c-1 -25 -3 -27 -12 -12 -5 9 -7
22 -4 27 4 6 -10 11 -32 11 l-38 2 40 7 40 7 -37 2 c-22 0 -38 6 -38 13 0 6
-6 4 -13 -6 -9 -12 -23 -17 -42 -14 -24 2 -30 8 -29 26 0 17 -4 21 -18 16 -15
-5 -18 0 -18 35 0 23 -4 41 -10 41 -5 0 -10 -4 -10 -8 0 -4 -9 -8 -20 -8 -14
0 -23 10 -30 31 -8 27 -9 27 -9 5 3 -72 -5 -47 -56 195 -25 120 -28 149 -29
370 -1 132 -5 246 -9 252 -4 7 -10 39 -12 70 -2 32 -4 61 -4 66 -1 4 -5 7 -11
7 -5 0 -7 -8 -4 -17 5 -15 3 -15 -10 1 -18 23 -21 46 -5 46 5 0 7 -4 4 -10 -3
-5 -1 -10 4 -10 14 0 14 47 1 55 -6 4 -8 10 -5 15 7 11 -21 79 -42 102 -24 26
-56 22 -89 -12 -16 -16 -34 -30 -40 -30 -5 0 -23 -13 -39 -30 -35 -37 -58 -37
-120 -5 -51 28 -62 27 -47 -2 5 -10 15 -43 21 -73 7 -30 17 -58 24 -62 9 -6 9
-8 0 -8 -9 0 -13 -21 -13 -71 0 -157 -56 -514 -93 -586 -36 -72 -50 -93 -65
-93 -7 0 -11 -4 -8 -9 6 -10 -43 -75 -51 -67 -5 5 -53 -39 -53 -49 0 -7 -44
-51 -87 -86 -10 -8 -24 -14 -31 -11 -7 2 -10 -2 -7 -10 3 -8 -3 -22 -14 -32
-11 -10 -18 -23 -15 -27 3 -5 -2 -9 -10 -9 -9 0 -16 6 -17 13 0 6 -4 2 -9 -10
-10 -25 -40 -22 -40 4 0 8 5 11 10 8 6 -3 10 1 10 9 0 9 5 16 10 16 6 0 10 7
10 15 0 8 5 15 11 15 6 0 8 9 4 20 -5 15 -3 18 9 14 19 -7 22 11 4 23 -20 12
-41 13 -54 2 -8 -7 -14 -6 -19 1 -3 5 1 13 9 16 9 3 16 12 16 18 0 16 -114 20
-143 4 -20 -10 -21 -10 -8 5 14 18 2 24 -15 8 -13 -12 -136 -42 -192 -45 -107
-8 -255 33 -342 94 -58 40 -133 123 -145 159 -3 12 -11 21 -16 21 -12 0 -12
-17 2 -25 5 -4 8 -12 7 -17 -2 -6 5 -21 16 -33 92 -99 115 -123 130 -128 9 -4
16 -13 16 -22 0 -8 5 -15 11 -15 6 0 9 -6 6 -14 -3 -9 3 -17 16 -21 20 -7 21
-7 3 -12 -11 -3 -23 2 -28 11 -5 9 -15 16 -23 16 -13 0 -67 44 -126 103 -22
22 -27 35 -23 53 5 20 2 24 -16 24 -12 0 -28 7 -36 15 -9 8 -12 15 -8 15 3 0
1 6 -5 14 -9 11 -9 15 1 19 9 3 7 10 -8 23 -15 14 -21 33 -23 73 -1 29 -9 64
-18 77 -9 15 -11 24 -4 24 6 0 11 16 11 36 0 22 4 33 11 29 6 -4 8 -14 5 -22
-3 -8 -2 -22 3 -31 5 -9 12 -33 15 -52 3 -20 13 -53 22 -75 10 -22 17 -43 16
-47 -1 -5 5 -8 14 -8 9 0 14 3 12 8 -2 4 -10 21 -17 37 -7 17 -17 38 -22 48
-5 9 -12 36 -14 58 -3 23 -8 46 -11 51 -9 14 6 158 16 158 12 0 31 -98 24
-126 -5 -18 -2 -24 10 -24 20 0 20 -7 -1 -28 -16 -16 -16 -17 0 -20 9 -2 17
-10 17 -18 0 -8 7 -17 15 -20 8 -4 12 -10 9 -16 -3 -5 2 -18 12 -29 9 -10 13
-19 8 -19 -5 0 2 -10 16 -23 14 -12 38 -39 54 -60 32 -44 113 -106 137 -107 9
0 30 -7 45 -15 16 -8 43 -15 59 -16 26 0 27 -2 10 -9 l-20 -9 20 -1 c11 0 54
-3 95 -6 98 -6 186 20 266 80 64 48 190 174 220 220 29 46 77 96 91 96 7 0 13
9 13 19 0 21 -16 37 -22 22 -1 -5 -55 4 -118 20 -63 16 -171 36 -241 44 -88
10 -142 22 -183 40 -105 46 -225 76 -331 82 -55 3 -105 9 -111 14 -5 4 -20 6
-32 2 -26 -6 -30 12 -7 36 48 53 55 62 55 70 0 11 17 17 79 26 75 12 121 7
175 -18 28 -13 71 -32 96 -43 24 -10 60 -30 80 -43 30 -20 42 -23 95 -18 55 5
122 29 135 48 8 11 191 41 215 35 35 -9 70 -42 111 -103 51 -76 72 -120 80
-160 6 -32 24 -47 24 -19 0 7 8 16 18 18 15 4 19 17 21 66 4 112 -19 157 -104
201 -54 28 -125 100 -125 126 0 7 -6 17 -13 23 -10 9 -12 4 -9 -22 5 -40 -12
-54 -37 -32 -22 20 -58 20 -91 1 -66 -38 -268 -6 -317 50 -12 14 -27 25 -32
25 -6 0 -8 7 -4 16 4 10 -1 17 -15 21 -11 2 -23 14 -25 25 -5 16 -10 18 -29
12 -36 -11 -61 -12 -85 -1 -21 9 -21 11 -6 40 l15 30 -43 -35 c-52 -42 -119
-77 -136 -71 -7 3 -13 1 -13 -4 0 -5 -17 -10 -37 -10 -21 -1 -65 -6 -98 -13
-33 -6 -75 -12 -94 -14 -29 -4 -40 -11 -53 -36 -2 -3 -17 -17 -35 -32 -25 -20
-29 -27 -17 -32 14 -5 14 -8 0 -27 -8 -12 -25 -27 -38 -33 -15 -8 -22 -20 -21
-35 2 -12 -6 -40 -17 -61 -11 -22 -20 -49 -20 -61 0 -17 4 -20 24 -15 18 4 28
0 40 -19 9 -14 14 -30 11 -36 -4 -5 -2 -15 3 -22 6 -7 16 -34 22 -60 14 -52
37 -79 28 -32 -3 15 -2 42 3 60 11 40 39 55 40 22 1 -19 2 -18 9 6 5 17 4 40
-1 57 -9 24 -6 36 16 74 15 25 31 43 36 40 5 -3 9 0 9 6 0 6 5 8 11 4 8 -4 7
-9 -2 -16 -11 -7 -11 -11 -1 -15 15 -6 16 -23 1 -23 -20 0 -49 -42 -49 -72 0
-30 9 -35 28 -16 17 17 14 -3 -3 -26 -8 -11 -15 -27 -15 -37 0 -9 -7 -22 -15
-29 -11 -9 -15 -9 -15 -1 0 7 -4 10 -9 7 -5 -4 -12 0 -15 6 -6 13 -2 -11 10
-69 4 -22 3 -25 -5 -13 -10 13 -14 12 -32 -10 -16 -18 -19 -32 -14 -55 14 -59
12 -70 -12 -67 -13 2 -23 -2 -23 -8 0 -6 -5 -8 -11 -5 -5 4 -8 12 -6 18 2 7
-4 24 -15 39 -11 16 -17 32 -14 36 3 5 -1 26 -8 47 -14 39 -11 79 5 69 5 -3 6
2 3 10 -8 21 -34 20 -34 0 0 -9 -6 -14 -12 -11 -7 2 -23 1 -35 -4 -17 -6 -23
-16 -23 -39 0 -16 5 -30 10 -30 6 0 10 -9 10 -20 0 -11 5 -20 11 -20 6 0 9 -7
5 -15 -6 -16 12 -65 29 -77 5 -4 6 -10 1 -15 -10 -11 -26 18 -55 102 -23 69
-24 73 -13 225 7 85 16 171 21 190 26 95 42 192 36 211 -6 16 -4 20 6 14 8 -5
11 -4 6 0 -4 5 0 16 8 25 8 9 16 25 18 36 2 10 9 32 15 47 18 42 14 53 -8 30
-11 -12 -33 -30 -50 -40 -17 -10 -28 -23 -25 -31 2 -7 0 -10 -5 -7 -6 3 -10 2
-10 -3 0 -6 7 -12 15 -16 8 -3 15 -11 15 -17 0 -8 -4 -8 -15 1 -8 7 -15 9 -15
5 0 -4 -6 -3 -12 2 -7 6 -44 9 -83 7 -84 -3 -85 -3 -60 -14 19 -8 19 -9 -2 -9
-13 -1 -23 3 -23 7 0 5 -19 6 -41 3 -38 -5 -46 -12 -66 -50 -1 -1 -7 0 -13 4
-7 4 -4 13 10 25 l21 18 -22 15 c-12 9 -29 13 -38 10 -13 -4 -13 -3 -2 5 12 8
8 14 -20 31 -19 12 -39 21 -46 21 -21 0 -25 -20 -7 -37 15 -16 10 -26 -13 -24
-11 1 -14 49 -3 56 17 11 11 35 -10 35 -35 0 -41 -31 -36 -205 3 -91 2 -165
-2 -165 -4 0 -8 -11 -8 -25 -1 -14 1 -23 5 -21 3 2 6 -102 6 -232 -1 -242 -10
-321 -49 -431 -9 -24 -16 -54 -16 -66 0 -12 -7 -28 -15 -35 -13 -11 -13 -15
-3 -21 10 -7 9 -9 -4 -9 -10 0 -18 -4 -18 -10 0 -5 5 -10 11 -10 6 0 3 -7 -5
-16 -9 -8 -16 -26 -16 -40 0 -14 -7 -27 -15 -30 -11 -5 -13 -10 -5 -19 8 -10
8 -15 0 -20 -8 -5 -8 -11 1 -21 9 -11 8 -14 -7 -15 -11 0 -14 -3 -6 -6 6 -2
12 -9 12 -14 0 -12 -57 -11 -63 1 -3 6 -4 5 -3 -2 1 -7 14 -14 29 -16 26 -3
26 -4 21 -70 -5 -62 -4 -66 10 -48 9 11 16 15 16 9 0 -7 -5 -15 -10 -18 -6 -4
-8 -16 -5 -28 5 -20 5 -20 -8 2 -11 18 -16 21 -22 10 -5 -8 -4 -14 3 -17 7 -2
10 -8 6 -13 -3 -5 0 -9 7 -9 7 0 9 -3 6 -7 -4 -3 -2 -12 4 -20 9 -10 8 -13 -1
-13 -9 0 -11 -13 -6 -47 l6 -47 -27 42 c-26 39 -28 41 -36 20 -11 -31 -30
-333 -23 -364 4 -14 18 -37 32 -51 15 -15 26 -37 26 -54 1 -20 6 -29 17 -29
13 0 13 -2 2 -9 -19 -12 1 -23 46 -24 20 -1 31 -3 24 -5 -15 -5 5 -32 23 -32
6 0 4 5 -4 10 -8 5 -10 10 -4 10 18 0 37 -27 24 -35 -20 -12 -9 -20 30 -21 22
-1 40 3 40 8 0 5 13 7 30 3 16 -4 30 -2 30 3 0 5 16 8 35 8 29 -1 35 -5 35
-23 0 -24 19 -33 21 -10 0 6 4 3 9 -8 7 -17 9 -17 9 -2 1 9 8 17 16 17 8 0 15
6 15 13 1 6 6 2 13 -11 7 -12 16 -19 21 -15 4 4 11 1 16 -7 9 -13 10 -13 10 0
1 11 4 9 13 -5 7 -11 18 -20 25 -21 6 -1 19 -2 27 -2 8 -1 15 -10 15 -19 0
-14 2 -15 9 -4 10 16 31 6 31 -15 0 -9 6 -14 13 -11 6 2 12 9 12 15 0 26 15
22 16 -4 l1 -29 7 30 c4 17 3 32 -1 33 -4 2 -8 11 -8 20 0 15 2 15 10 2 8 -13
11 -12 16 7 6 21 6 21 25 2 23 -23 24 -29 4 -29 -8 0 -15 -5 -15 -10 0 -7 7
-7 20 0 15 8 19 17 15 31 -9 27 4 24 15 -3 7 -19 9 -19 9 -5 1 10 6 15 11 12
6 -3 10 0 11 7 1 7 5 2 9 -12 7 -21 8 -22 9 -5 1 17 3 18 11 5 8 -12 12 -13
19 -2 4 8 12 14 16 14 4 0 12 -6 16 -14 7 -10 9 -10 9 0 0 9 5 10 18 4 9 -5
23 -7 31 -4 10 3 13 -2 9 -22 -3 -14 -1 -26 3 -26 5 0 9 10 9 23 0 16 6 23 20
23 11 0 20 -3 20 -7 0 -4 8 -6 18 -5 9 2 29 0 44 -5 21 -6 30 -4 38 9 8 14 10
14 10 2 0 -12 4 -10 15 4 15 20 15 20 15 0 1 -18 1 -18 11 -1 5 9 15 17 20 17
6 0 26 16 44 35 28 28 35 31 38 17 3 -9 5 2 6 25 0 23 5 44 10 48 6 3 13 26
17 50 3 25 10 48 15 51 5 3 9 14 9 25 0 10 4 19 9 19 5 0 12 11 15 25 5 20 13
25 39 25 21 0 28 3 19 9 -10 6 -3 10 22 15 19 4 40 14 45 24 9 15 10 15 11 -3
1 -19 2 -18 13 3 14 24 27 20 27 -9 0 -17 15 -20 35 -7 6 4 17 2 25 -4 12 -8
11 -9 -3 -4 -14 4 -17 2 -15 -12 2 -9 10 -16 16 -15 10 3 17 -17 13 -39 0 -5
6 -8 14 -8 13 0 14 4 5 20 -9 16 -8 18 5 14 8 -4 15 -12 15 -18 0 -7 11 -19
25 -26 19 -10 30 -11 50 -2 l25 12 -30 53 c-23 42 -29 61 -24 85 6 31 16 37
57 34 9 -1 17 3 17 8 0 6 5 10 10 10 6 0 10 -7 10 -16 0 -9 9 -18 19 -21 11
-3 22 -16 25 -29 4 -13 11 -24 16 -24 5 0 7 -7 4 -15 -4 -8 -2 -15 2 -15 24 0
36 -64 43 -224 0 -16 4 -27 7 -23 4 3 17 -16 31 -42 18 -38 30 -50 54 -55 17
-3 28 -10 24 -15 -3 -6 8 -9 29 -7 19 1 33 -1 30 -5 -2 -4 0 -10 6 -14 5 -3
10 0 10 8 0 8 7 17 14 20 11 4 13 1 9 -11 -5 -14 -3 -14 17 3 13 11 20 15 17
8 -6 -10 31 -12 68 -3 24 6 45 -1 45 -15 0 -8 5 -15 10 -15 6 0 10 7 8 16 -2
10 3 19 10 21 7 3 10 -1 6 -10 -3 -8 -1 -18 5 -22 6 -3 11 -1 11 5 0 7 7 9 17
6 9 -4 20 -1 25 6 6 10 8 8 8 -5 0 -16 2 -16 30 -2 38 20 40 19 40 -7 1 -21 2
-21 11 -5 5 9 16 17 24 17 8 0 12 6 9 14 -8 22 48 29 65 8 12 -15 13 -15 8 -1
-4 14 2 17 35 17 26 1 52 9 70 22 19 14 28 16 28 8 1 -8 5 -7 14 4 7 10 16 15
19 11 4 -3 7 -1 7 5 0 7 7 12 16 12 27 0 104 40 104 55 0 7 9 17 20 20 11 4
27 19 35 35 20 39 46 236 51 395 2 72 7 138 10 148 11 34 91 60 202 65 111 5
132 1 298 -54 126 -42 163 -57 194 -81 29 -22 93 -53 109 -53 6 0 11 5 11 10
0 6 5 10 11 10 5 0 8 -4 4 -9 -3 -5 -1 -12 4 -15 16 -11 21 10 7 30 -11 14
-17 16 -28 7 -8 -7 -25 -9 -39 -6 l-24 7 24 6 c14 3 26 11 29 18 2 7 -2 10
-12 6 -9 -3 -16 -1 -16 5 0 6 -6 11 -12 11 -26 1 -108 138 -108 181 0 17 3 18
20 7 11 -7 18 -19 15 -26 -3 -7 -1 -10 4 -7 5 3 24 -8 42 -24 18 -17 36 -28
41 -25 5 3 8 2 7 -3 -4 -21 2 -34 12 -27 7 4 20 -4 31 -17 13 -16 21 -20 25
-11 7 17 23 15 23 -3 0 -8 5 -15 10 -15 13 0 13 6 -2 29 -6 10 -19 16 -29 14
-11 -3 -23 5 -35 24 -10 15 -23 33 -29 38 -6 6 -14 24 -18 42 -5 26 -3 33 14
38 10 4 17 10 14 15 -3 4 -1 19 4 32 9 21 10 21 10 -10 1 -29 4 -32 21 -27 14
4 20 2 20 -8 0 -10 7 -13 20 -10 14 4 20 0 20 -11 0 -9 4 -16 10 -16 5 0 7 13
4 29 -3 16 -1 32 5 35 7 5 9 -7 7 -34 -2 -28 1 -43 12 -49 8 -4 13 -14 11 -20
-3 -8 -12 -4 -27 10 -27 24 -27 24 -36 -16 -6 -24 -5 -28 5 -17 18 17 32 15
25 -3 -3 -9 0 -15 10 -15 8 0 12 -5 9 -11 -4 -6 -13 -8 -20 -5 -7 2 -16 2 -19
-1 -8 -9 26 -32 47 -33 16 0 18 -5 12 -32 -5 -29 -4 -30 6 -13 7 11 13 21 14
23 1 1 15 -4 31 -13 16 -8 37 -15 47 -15 9 0 17 -4 17 -10 0 -5 -7 -10 -15
-10 -20 0 -19 -36 1 -44 28 -11 34 -7 34 23 0 23 5 30 22 33 14 2 22 11 24 28
3 21 2 22 -7 8 -12 -22 -29 -23 -29 -3 0 10 -10 15 -30 15 -16 0 -30 5 -30 10
0 6 -11 15 -25 20 -14 5 -25 14 -25 20 0 20 -19 10 -23 -12 -2 -13 -5 -4 -6
20 -1 36 2 42 19 42 11 0 20 5 20 10 0 6 -6 10 -14 10 -10 0 -14 9 -12 28 1
19 7 26 19 24 11 -2 17 4 17 18 0 12 7 20 18 20 15 0 15 2 2 11 -13 9 -13 10
2 6 9 -3 19 -1 22 6 3 9 5 9 5 0 1 -6 -3 -15 -9 -18 -5 -3 -10 -13 -10 -22 0
-14 3 -13 25 1 14 9 30 14 35 11 6 -3 10 1 10 9 0 25 18 19 22 -6 2 -13 9 -22
16 -20 7 1 22 -3 34 -9 16 -9 18 -13 7 -20 -7 -4 -10 -11 -6 -15 4 -4 13 0 20
10 15 20 74 19 69 -1 -1 -7 7 -13 17 -13 11 0 22 6 24 13 4 9 8 9 15 -2 8 -11
15 -9 38 12 30 28 30 31 -3 41 -16 5 -25 2 -32 -13 -14 -25 -51 -17 -51 11 0
10 -5 16 -10 13 -16 -10 -50 5 -50 21 0 8 -4 14 -10 14 -5 0 -10 -7 -10 -15 0
-8 -9 -15 -20 -15 -25 0 -27 20 -2 21 10 0 12 3 4 6 -6 2 -10 8 -7 13 3 4 -16
11 -40 15 -25 3 -61 13 -79 20 -38 16 -46 13 -39 -16 4 -14 11 -18 27 -14 11
2 8 -1 -9 -9 -16 -8 -30 -18 -30 -23 0 -4 -4 -14 -9 -21 -6 -10 -12 -8 -27 9
-25 28 -24 42 1 34 15 -5 20 -2 20 14 0 10 2 25 5 33 4 9 -20 27 -71 53 -76
40 -132 93 -156 147 -7 15 -16 28 -20 28 -5 0 -8 8 -8 18 0 9 -7 30 -15 46 -9
16 -13 36 -11 43 3 7 1 13 -3 13 -5 0 -7 10 -3 22 l5 22 9 -24 c5 -13 7 -31 6
-40 -4 -23 71 -137 119 -180 63 -59 166 -117 214 -122 19 -2 37 -7 40 -11 11
-16 74 -24 179 -23 97 1 109 3 152 29 51 30 110 114 122 173 5 22 20 40 51 60
51 34 124 95 217 182 37 34 79 67 93 72 14 5 58 7 98 4 62 -6 79 -3 114 14 49
26 103 95 103 134 0 57 -66 148 -106 148 -23 0 -16 -14 16 -32 27 -15 60 -72
60 -104 0 -8 -9 -22 -20 -31 -11 -10 -20 -23 -20 -30 0 -9 -16 -13 -51 -13
-47 0 -51 -2 -46 -21 5 -17 2 -20 -14 -16 -16 4 -18 3 -9 -8 9 -11 6 -14 -12
-17 -38 -5 -82 3 -67 13 11 7 10 9 -3 9 -10 0 -20 10 -24 25 -3 14 -10 25 -14
25 -7 0 -12 44 -12 108 0 13 9 33 19 45 35 40 55 77 41 77 -19 0 -33 -12 -47
-37 -6 -13 -17 -23 -23 -23 -6 0 -3 11 6 25 9 14 13 25 9 25 -25 1 28 20 55
20 17 0 32 5 32 11 0 12 -72 3 -102 -12 -9 -5 -28 -9 -42 -9 -21 0 -26 6 -31
34 -9 47 1 72 50 125 43 47 91 128 81 139 -3 3 -6 1 -6 -4 0 -6 -7 -19 -16
-30 -15 -18 -15 -18 -10 8 12 53 -66 139 -152 169 -25 8 -36 9 -45 0 -8 -8 -3
-11 19 -11 38 0 113 -56 120 -90 3 -14 10 -36 15 -49 13 -31 2 -61 -22 -61
-10 0 -19 -6 -19 -14 0 -7 -7 -19 -15 -26 -21 -18 -87 -31 -100 -20 -7 5 -20
11 -31 13 -32 6 -54 19 -54 30 0 5 9 2 20 -8 17 -16 20 -16 15 -3 -4 9 -18 24
-31 33 -13 8 -24 20 -24 26 0 6 -7 17 -15 25 -18 19 -21 89 -3 78 8 -5 9 -2 5
10 -4 9 -2 22 3 29 5 7 22 28 38 47 33 41 92 147 92 167 0 8 7 28 16 44 20 40
14 46 -10 10z m109 -708 c-14 -37 -17 -110 -5 -151 10 -38 13 -42 27 -30 15
11 16 11 10 -5 -5 -13 1 -26 20 -43 16 -15 21 -24 12 -25 -8 0 -5 -4 6 -9 13
-5 4 -7 -30 -5 -27 2 -52 -1 -55 -5 -7 -11 -40 18 -64 54 -12 19 -20 52 -22
95 -2 36 -1 58 2 48 7 -20 24 -13 24 11 0 17 58 82 73 82 5 0 6 -8 2 -17z
m-3204 -127 c21 -5 28 -13 32 -43 4 -21 4 -49 0 -62 -6 -22 -9 -23 -61 -17
-66 8 -82 19 -82 58 0 33 44 81 69 74 9 -2 28 -7 42 -10z m2329 -373 c0 -7 5
-13 10 -13 6 0 10 -7 10 -15 0 -18 12 -19 28 -3 9 9 12 9 12 0 0 -7 -5 -12
-11 -12 -8 0 -8 -5 1 -15 7 -8 17 -15 23 -15 6 0 43 -25 83 -55 40 -30 84 -57
98 -61 28 -7 45 -24 24 -24 -7 0 -25 -6 -40 -14 -14 -8 -30 -11 -35 -7 -4 4
-24 14 -43 22 -19 7 -44 22 -55 32 -11 10 -33 25 -50 33 -37 18 -59 37 -107
92 -41 45 -47 62 -22 62 8 0 12 5 9 10 -3 6 -15 10 -26 10 -10 0 -19 4 -19 9
0 4 25 1 55 -7 32 -9 55 -21 55 -29z m-1623 -192 c-6 -31 -48 -111 -58 -111
-6 0 -9 -7 -5 -15 3 -9 -2 -23 -12 -33 -9 -10 -26 -34 -37 -55 -11 -21 -30
-40 -41 -43 -12 -3 -26 -16 -32 -30 -8 -15 -17 -22 -27 -18 -10 4 -15 0 -15
-11 0 -9 -4 -14 -9 -10 -5 3 -26 -6 -47 -20 -20 -14 -46 -25 -58 -25 -17 0
-18 -2 -6 -10 11 -7 8 -11 -15 -21 -17 -6 -45 -11 -62 -10 -21 1 -33 -3 -34
-11 -1 -7 -4 -2 -8 12 -10 34 -8 36 55 65 30 14 54 29 54 34 0 5 16 15 35 21
20 6 35 17 34 23 -3 27 2 36 16 31 10 -4 15 0 15 14 0 24 16 38 23 20 3 -8 6
-6 6 4 1 12 6 15 18 11 12 -5 15 -2 10 10 -3 9 -2 17 3 17 6 0 10 8 10 18 0
15 2 15 10 2 9 -13 12 -13 24 3 7 9 19 17 26 17 7 0 10 7 6 15 -3 8 -1 15 3
15 5 0 12 -6 14 -12 4 -9 6 -8 6 3 1 8 -5 21 -11 28 -11 11 -9 13 10 8 17 -4
22 -2 18 8 -3 8 3 16 13 20 13 4 17 13 15 33 -3 26 -1 28 26 24 21 -3 29 -9
27 -21z"/>
<path d="M2136 5085 c17 -50 16 -83 -5 -104 -11 -11 -23 -32 -27 -47 -5 -19
-9 -22 -15 -12 -5 7 -9 8 -9 2 0 -6 -12 -17 -27 -25 -16 -7 -39 -21 -52 -31
-13 -10 -39 -18 -57 -18 -19 0 -34 -4 -34 -9 0 -5 -14 -16 -30 -25 -17 -8 -27
-10 -24 -4 4 6 -1 8 -16 3 -16 -5 -21 -4 -18 6 6 17 -20 38 -44 39 -10 0 -18
-6 -18 -14 0 -8 -10 -16 -22 -18 -22 -3 -23 -7 -11 -50 3 -11 -5 -22 -24 -32
-15 -8 -23 -16 -18 -17 6 -1 -3 -4 -20 -8 -24 -5 -29 -11 -27 -30 2 -19 -2
-22 -18 -18 -16 4 -23 -1 -30 -17 -5 -13 -15 -26 -23 -29 -8 -3 -17 -25 -21
-48 -5 -32 -9 -40 -16 -29 -7 11 -9 7 -7 -15 2 -27 -1 -30 -25 -27 -19 2 -28
-1 -28 -11 0 -8 -7 -18 -16 -21 -9 -3 -12 -2 -9 5 4 6 -3 8 -22 3 -53 -11 -63
-15 -63 -25 0 -16 -43 -9 -93 15 -36 18 -55 22 -80 16 -17 -5 -26 -8 -19 -9
17 -1 15 -30 -3 -37 -8 -4 -21 -1 -29 5 -11 9 -15 7 -20 -12 -6 -25 -102 -94
-123 -89 -7 2 -13 -4 -13 -13 0 -8 -8 -15 -19 -15 -23 0 -47 -25 -32 -35 6 -3
9 -16 7 -28 -3 -12 -5 -25 -5 -29 -1 -10 -33 -10 -55 -2 -9 3 -13 10 -10 16 4
6 -8 7 -30 3 -24 -5 -36 -3 -36 4 0 6 -11 11 -24 11 -32 0 -42 16 -19 29 14 8
15 10 3 11 -8 0 -28 7 -44 15 -31 17 -44 13 -30 -8 5 -7 1 -5 -8 6 -9 10 -15
24 -12 31 3 7 -3 16 -12 20 -24 9 -30 -1 -16 -24 7 -11 8 -20 2 -20 -13 0 -28
32 -23 48 3 6 0 12 -6 12 -12 0 -14 -14 -5 -47 4 -16 14 -23 30 -23 17 0 24
-6 24 -20 0 -45 35 -101 103 -170 27 -27 48 -51 48 -54 -3 -20 1 -26 15 -26
14 0 15 2 3 17 -12 15 -12 16 4 10 10 -4 22 -7 27 -7 4 0 10 -9 13 -20 4 -14
0 -20 -11 -20 -15 0 -15 -2 -2 -10 8 -5 17 -5 20 -1 3 4 12 11 20 14 12 4 11
6 -2 6 -10 1 -18 5 -18 10 0 5 23 8 52 5 29 -2 57 1 65 7 8 7 13 7 13 2 0 -7
17 -7 48 -2 117 21 112 21 106 4 -3 -8 -14 -15 -24 -15 -10 0 -26 -7 -34 -16
-15 -14 -16 -14 -16 3 0 11 -3 14 -8 7 -4 -6 -15 -13 -24 -17 -10 -3 -18 -13
-18 -21 0 -10 -6 -13 -16 -9 -10 4 -22 0 -29 -10 -6 -9 -20 -14 -31 -13 -10 2
-25 -1 -31 -7 -9 -6 -13 -6 -13 2 0 6 -4 11 -10 11 -19 0 -3 -45 20 -57 12 -6
27 -17 32 -25 7 -9 8 -8 4 6 -6 18 -5 18 20 1 15 -9 23 -12 20 -6 -9 13 6 15
20 2 5 -6 21 -4 41 6 25 12 36 13 47 4 11 -9 12 -6 8 14 -3 20 0 25 17 25 11
0 21 6 21 14 0 18 32 26 54 14 11 -6 15 -16 11 -28 -3 -10 -1 -21 5 -25 5 -3
10 -13 10 -21 0 -11 -6 -13 -20 -9 -14 4 -20 2 -20 -8 0 -9 -3 -17 -7 -20 -5
-2 -2 -2 5 -1 14 4 16 -25 2 -46 -9 -13 -10 -13 -10 0 -1 12 -3 12 -14 -3 -9
-11 -20 -15 -31 -10 -15 5 -17 3 -12 -12 4 -9 2 -24 -4 -31 -10 -12 -9 -13 5
-8 9 3 16 1 16 -5 0 -6 -7 -11 -15 -11 -8 0 -15 -9 -15 -20 0 -13 -7 -20 -20
-20 -11 0 -20 -4 -20 -10 0 -5 9 -10 20 -10 11 0 23 -7 26 -15 4 -8 10 -15 16
-15 5 0 6 5 3 10 -3 6 0 10 7 11 7 0 4 4 -7 8 -15 6 -8 10 33 16 28 4 52 11
52 16 0 5 8 9 18 9 11 0 24 10 31 23 11 21 11 21 6 -5 -3 -16 -1 -28 5 -28 5
0 10 10 11 23 1 21 2 19 15 -23 5 -13 6 -13 14 0 9 13 10 13 11 0 0 -10 3 -8
9 5 5 11 9 15 9 8 1 -7 9 -10 19 -7 9 3 6 -1 -8 -9 -14 -9 -28 -13 -32 -11 -3
2 -9 0 -13 -6 -4 -6 -11 -8 -16 -5 -5 4 -9 2 -9 -4 0 -5 -12 -12 -27 -14 -16
-2 -11 -3 9 -2 52 4 147 50 182 89 56 62 147 135 176 141 15 3 61 27 101 52
71 44 192 88 216 79 6 -3 14 -2 17 1 3 4 33 5 66 4 49 -2 60 1 60 13 0 9 11
18 25 22 14 3 23 10 20 14 -9 14 6 40 24 41 10 0 11 2 4 6 -7 2 -13 12 -13 21
0 21 -70 28 -82 9 -4 -7 -5 2 -2 19 3 18 1 34 -5 38 -5 4 -8 13 -5 20 3 8 1
17 -4 20 -6 3 -8 15 -5 26 6 24 -9 26 -27 5 -7 -8 -22 -15 -34 -15 -19 -1 -20
-1 -3 -11 10 -6 25 -8 33 -5 9 3 12 1 9 -4 -3 -6 -27 -10 -53 -10 -45 -1 -46
-1 -22 -15 l25 -13 -35 -4 c-23 -2 -35 -8 -35 -18 0 -8 -14 -21 -32 -29 -17
-8 -34 -23 -37 -34 -3 -14 -10 -18 -27 -14 -15 4 -32 -4 -60 -30 -22 -20 -39
-42 -39 -48 0 -7 -6 -18 -14 -24 -11 -9 -15 -7 -19 9 -3 12 -13 20 -26 20 -22
0 -46 34 -36 50 3 6 2 10 -2 10 -5 0 -19 80 -33 178 -13 97 -29 180 -35 184
-6 5 -6 8 3 8 7 0 12 13 12 30 0 16 8 35 17 42 9 7 51 47 94 89 42 42 96 90
120 107 24 16 55 41 67 55 17 18 39 27 75 32 29 4 78 21 110 37 62 31 90 65
108 133 9 34 8 45 -10 80 -12 22 -19 31 -15 20z"/>
<path d="M2234 2746 c1 -24 4 -42 9 -39 4 2 7 2 7 -1 0 -3 -12 -12 -27 -20
-16 -9 -21 -16 -13 -16 12 0 11 -4 -4 -15 -17 -13 -18 -15 -3 -15 9 0 17 -7
17 -15 0 -8 4 -15 10 -15 5 0 7 -7 3 -15 -5 -15 41 -65 60 -65 4 0 7 -7 7 -15
0 -9 11 -20 24 -25 13 -5 28 -15 33 -22 11 -18 89 -68 106 -68 8 0 55 -28 106
-62 62 -42 87 -64 79 -70 -12 -7 -4 -12 16 -9 17 3 46 -11 41 -19 -6 -10 29
-50 44 -50 5 0 8 -7 7 -16 0 -9 9 -23 22 -31 20 -14 22 -14 22 5 0 18 4 20 30
12 17 -5 30 -5 30 0 0 5 -13 11 -30 15 -16 4 -30 11 -30 17 0 6 8 7 18 3 9 -4
39 -14 67 -22 54 -16 88 -36 79 -46 -3 -3 16 -5 42 -4 43 2 48 0 55 -23 6 -23
7 -23 8 -3 1 21 16 23 61 6 8 -4 20 -5 27 -4 6 1 14 -3 17 -8 9 -14 -25 -23
-40 -10 -11 9 -14 6 -15 -17 -2 -27 -2 -27 -9 6 l-7 35 -3 -35 -3 -35 -7 35
-7 35 -2 -30 c-2 -16 -5 -25 -7 -18 -4 9 -13 9 -32 2 -21 -8 -29 -7 -38 6 -10
14 -13 14 -24 0 -16 -20 -27 -19 -33 3 -4 16 -5 16 -6 0 -1 -25 -17 -22 -26 5
l-7 22 -8 -25 c-5 -16 -8 -19 -9 -8 -1 9 -6 20 -13 24 -8 5 -9 0 -5 -15 5 -22
-20 -81 -35 -81 -5 0 -8 11 -8 25 0 15 -7 39 -15 55 -13 26 -13 29 3 33 9 2
-1 4 -23 3 -36 -2 -40 -5 -43 -30 -3 -22 -6 -25 -18 -15 -11 9 -18 9 -30 -2
-13 -10 -17 -10 -24 1 -7 11 -12 11 -23 2 -7 -7 -17 -9 -20 -5 -4 3 -7 1 -7
-5 0 -7 9 -12 21 -12 11 0 17 -4 14 -10 -3 -5 -16 -10 -27 -10 -18 0 -20 5
-15 34 5 30 3 33 -15 28 -14 -3 -19 -1 -14 6 4 7 2 12 -3 12 -6 0 -11 5 -11
11 0 6 14 9 33 8 42 -4 52 -9 36 -20 -7 -4 -11 -11 -8 -14 9 -8 40 6 34 15 -6
10 22 40 36 40 13 0 11 -18 -3 -23 -7 -2 -9 -8 -5 -13 8 -8 26 12 27 28 0 4
-10 17 -22 29 -22 21 -22 21 -2 11 12 -6 24 -9 28 -5 10 10 -36 43 -61 43 -13
0 -27 8 -30 17 -6 15 -7 15 -15 -3 -7 -15 -7 -13 -5 9 3 15 0 27 -4 27 -5 0
-6 6 -3 14 3 7 -2 16 -11 19 -12 5 -14 1 -9 -20 6 -22 4 -25 -10 -20 -10 4
-19 7 -22 7 -2 0 -1 6 2 14 3 9 -2 13 -18 11 -13 -1 -31 -3 -40 -4 -10 0 -18
-8 -18 -16 0 -14 -22 -20 -65 -15 -16 2 -17 -1 -7 -13 10 -11 9 -17 -3 -27
-12 -10 -15 -10 -15 4 0 9 -4 16 -10 16 -18 0 -10 -18 18 -40 16 -13 20 -19 9
-16 -10 3 -15 2 -12 -3 9 -15 -15 -58 -41 -72 -13 -6 -26 -20 -29 -30 -4 -10
-9 -18 -13 -18 -21 3 -33 -4 -52 -36 -12 -19 -27 -35 -35 -35 -16 0 -19 -81
-3 -91 7 -4 6 -14 -2 -30 -10 -17 -10 -24 -1 -27 6 -2 11 -8 11 -13 0 -5 -9
-4 -19 3 -15 9 -17 17 -10 35 12 32 12 33 -7 33 -9 0 -18 -9 -21 -20 -5 -19
-16 -25 -37 -21 -4 1 -14 -4 -22 -10 -12 -10 -13 -9 -8 5 3 9 1 16 -4 16 -6 0
-13 -10 -15 -22 -3 -15 -5 -9 -6 14 -1 29 2 36 14 32 8 -4 15 -10 15 -15 0 -5
5 -9 10 -9 6 0 10 10 10 23 0 17 2 19 9 8 7 -11 14 -8 34 15 31 36 24 54 -9
23 -22 -21 -29 -19 -25 5 3 12 -20 26 -41 26 -24 0 -23 -15 2 -26 13 -6 17
-13 11 -22 -6 -11 -12 -10 -26 5 -10 10 -21 16 -24 13 -3 -3 -7 3 -9 14 -3 11
0 16 7 12 15 -10 14 11 -4 59 -20 56 -19 68 6 62 19 -5 20 -4 4 19 -9 14 -13
29 -10 34 7 12 -16 50 -31 50 -7 0 -10 12 -7 28 3 25 3 26 -6 5 -6 -13 -15
-23 -21 -23 -5 0 -10 -8 -10 -19 0 -21 -37 -108 -49 -115 -5 -3 -11 -15 -14
-26 -4 -17 -2 -20 15 -14 17 5 18 3 9 -15 -7 -11 -21 -51 -32 -88 -11 -38 -36
-99 -54 -138 -18 -38 -52 -128 -76 -200 -40 -123 -43 -136 -43 -252 l-1 -123
-80 -32 c-44 -17 -81 -32 -83 -34 -8 -6 20 -44 32 -44 10 0 15 -17 18 -58 5
-62 -11 -105 -57 -160 -14 -16 -25 -35 -25 -41 0 -14 -117 -131 -279 -281 -68
-63 -132 -128 -142 -145 -36 -59 -19 -130 43 -177 84 -64 274 -95 393 -65 246
63 266 72 325 158 46 67 106 126 195 192 60 45 90 86 107 150 10 41 10 60 -4
129 -15 71 -15 83 -3 102 9 12 15 44 15 76 0 50 3 56 29 72 42 23 98 104 113
162 12 46 21 56 138 153 136 113 311 236 349 246 13 3 36 0 50 -7 14 -7 32
-11 39 -9 6 3 12 -3 12 -12 0 -11 4 -13 13 -8 18 12 57 11 57 -2 0 -5 8 -1 17
10 12 15 14 16 10 3 -6 -17 17 -33 34 -22 5 3 9 -3 9 -12 0 -16 1 -16 14 1 11
16 17 17 29 7 8 -7 19 -12 23 -11 22 4 45 -2 40 -9 -3 -5 1 -9 9 -9 8 0 12 4
9 9 -3 4 0 8 5 8 6 0 11 -4 11 -9 0 -6 9 -8 19 -6 31 6 61 -6 62 -24 0 -13 2
-14 6 -1 9 24 21 27 71 19 26 -4 50 -5 54 -3 3 2 9 -2 11 -8 3 -7 6 -4 6 7 1
17 3 17 11 5 8 -12 10 -12 10 -1 0 10 3 11 14 2 12 -10 15 -8 19 11 l4 23 2
-22 c0 -13 6 -23 11 -23 6 0 10 -8 11 -17 1 -12 4 -10 9 7 4 14 8 19 9 12 1
-9 8 -8 28 5 19 12 25 14 19 4 -7 -11 -4 -13 12 -9 12 4 22 3 22 -1 0 -4 9 -7
19 -7 11 0 18 4 15 8 -2 4 4 7 13 6 30 -1 126 12 132 17 3 3 10 -4 17 -16 l12
-22 7 22 c4 15 12 20 23 16 8 -3 18 -1 22 4 9 15 53 20 68 9 8 -7 12 -7 12 1
0 6 10 11 23 11 13 0 27 3 31 7 3 4 14 7 24 8 47 5 132 37 126 48 -5 9 -4 9 6
0 9 -8 20 -9 37 -2 14 5 28 7 33 4 4 -3 10 2 14 10 3 8 12 12 21 9 8 -3 15 -1
15 4 0 6 9 14 20 17 12 4 17 11 13 18 -5 9 -3 9 8 1 8 -6 28 -11 44 -11 36 0
236 -75 263 -98 2 -2 -6 -16 -17 -32 -11 -15 -28 -58 -38 -95 -17 -64 -17 -72
1 -190 37 -254 37 -251 14 -299 -11 -24 -29 -56 -39 -70 -15 -21 -17 -35 -11
-70 7 -38 3 -56 -30 -134 -79 -186 -93 -263 -58 -320 38 -62 100 -92 281 -135
242 -58 318 -81 417 -125 118 -52 152 -61 302 -86 237 -39 377 -19 413 57 26
55 22 98 -18 159 -42 66 -105 114 -303 230 -163 97 -255 155 -291 186 -20 16
-23 24 -15 37 8 12 6 30 -8 66 -10 28 -18 52 -18 53 0 2 -6 3 -12 3 -21 1 -48
66 -42 99 4 17 0 41 -10 60 -15 29 -36 42 -36 22 0 -5 -9 -11 -20 -14 -11 -3
-20 -3 -20 1 0 3 24 57 54 121 148 321 210 581 172 725 -9 33 -31 85 -48 116
-18 31 -44 76 -57 101 -20 38 -29 46 -52 46 -15 0 -31 -7 -34 -14 -2 -8 -15
-14 -27 -13 -40 4 -48 0 -48 -17 -1 -17 -1 -17 -11 0 -5 9 -14 17 -19 17 -5 0
-7 -8 -3 -17 5 -14 3 -15 -6 -7 -7 7 -21 9 -32 7 -15 -4 -16 -9 -8 -24 11 -21
-1 -25 -19 -7 -16 16 -28 2 -13 -16 19 -23 5 -37 -25 -26 -20 8 -25 7 -21 -2
5 -15 -32 -50 -44 -42 -5 3 -6 11 -3 17 5 9 3 9 -6 0 -11 -10 -11 -15 0 -28
12 -15 0 -22 -14 -8 -10 11 -46 14 -46 4 0 -5 7 -11 15 -15 27 -10 16 -25 -16
-21 -27 4 -29 2 -23 -17 4 -14 2 -18 -5 -14 -6 4 -11 15 -11 24 0 14 -2 15 -9
2 -6 -8 -7 -18 -5 -22 3 -4 -1 -5 -9 -2 -10 3 -17 -4 -22 -23 -6 -21 -9 -23
-12 -10 -6 25 -23 21 -24 -5 0 -21 -1 -21 -8 -4 -5 13 -10 16 -15 8 -4 -6 -2
-20 4 -31 17 -33 11 -35 -15 -7 -13 14 -22 32 -19 40 3 8 1 17 -5 21 -7 3 -8
0 -5 -9 3 -9 1 -16 -6 -16 -6 0 -8 -4 -5 -10 3 -5 1 -10 -5 -10 -7 0 -10 -7
-7 -14 4 -10 1 -13 -8 -10 -14 6 -26 28 -30 54 -1 8 -5 31 -9 50 -5 26 -4 31
3 20 10 -13 11 -13 11 0 0 13 1 13 11 0 8 -12 10 -9 6 13 -3 20 -1 27 8 23 7
-2 15 5 18 16 3 11 10 17 16 14 5 -4 15 3 21 14 9 17 8 20 -13 20 -13 0 -26 3
-30 6 -10 10 22 36 37 31 8 -3 17 2 21 11 5 14 7 14 16 2 7 -11 8 -6 3 14 -5
20 -3 27 4 22 6 -3 13 -2 17 4 3 5 1 10 -4 10 -6 0 -11 5 -11 11 0 6 9 9 20 6
15 -4 20 0 20 14 0 23 -23 25 -44 4 -8 -8 -24 -15 -35 -15 -14 0 -19 5 -15 15
4 8 15 15 25 15 10 0 19 5 19 10 0 6 -7 10 -16 10 -8 0 -12 5 -9 10 5 8 12 7
22 -2 13 -10 18 -8 34 11 15 19 17 27 7 38 -6 8 -19 12 -28 10 -10 -2 -17 1
-17 7 1 41 -3 48 -18 36 -12 -10 -15 -10 -15 3 0 24 49 68 79 72 14 1 29 3 34
4 4 0 7 9 7 19 0 14 2 15 10 2 8 -12 10 -11 10 8 0 12 4 22 9 22 5 0 11 12 14
28 12 58 20 87 26 92 4 3 21 28 39 56 30 47 44 114 24 114 -4 0 -38 -29 -74
-64 -81 -77 -147 -132 -212 -176 l-49 -33 7 27 c5 20 3 26 -10 26 -14 0 -14 1
0 16 9 8 14 20 10 25 -10 17 -33 -18 -37 -57 -3 -37 -4 -37 -5 9 -1 32 -6 46
-13 41 -6 -3 -9 -15 -6 -25 3 -10 1 -22 -4 -25 -5 -3 -9 2 -9 11 0 9 -5 13
-11 9 -6 -3 -15 0 -20 7 -6 10 -9 5 -10 -16 -1 -16 -1 -36 0 -44 2 -7 -2 -10
-8 -6 -6 3 -11 14 -12 23 0 10 -5 6 -11 -11 -5 -15 -14 -25 -19 -21 -5 3 -7
10 -4 15 4 5 1 9 -4 9 -6 0 -11 -7 -11 -15 0 -8 -4 -15 -10 -15 -5 0 -10 5
-10 10 0 6 -6 10 -14 10 -8 0 -17 8 -19 18 -3 10 -5 6 -6 -11 -1 -35 -21 -26
-22 11 -1 29 -3 24 -13 -20 -4 -16 -13 -28 -21 -28 -8 0 -15 -5 -15 -11 0 -6
9 -9 20 -6 29 7 25 -2 -6 -13 -19 -8 -24 -15 -19 -30 4 -13 2 -20 -7 -20 -28
0 -43 20 -41 52 l2 33 -10 -27 c-10 -27 -29 -38 -29 -17 0 5 -4 8 -10 4 -5 -3
-7 -12 -3 -20 3 -8 0 -15 -6 -15 -6 0 -11 8 -12 18 0 13 -2 12 -9 -5 -7 -17
-15 -20 -39 -17 -26 4 -33 1 -40 -18 l-10 -23 -2 25 c-1 18 -3 20 -6 7 -3 -12
-9 -15 -16 -9 -20 15 -57 21 -54 8 1 -6 -5 -9 -13 -7 -8 2 -26 5 -40 8 -21 3
-22 2 -5 -5 19 -9 19 -9 0 -20 -18 -10 -19 -11 -2 -12 10 0 16 -4 12 -10 -8
-13 -35 -1 -35 17 0 11 -7 13 -24 9 -15 -4 -28 -1 -33 6 -5 9 -10 3 -15 -17
-5 -20 -6 -13 -3 23 4 50 3 52 -22 52 -14 0 -31 -6 -37 -14 -6 -8 -21 -17 -33
-21 -19 -5 -23 -2 -23 15 0 12 -4 18 -10 15 -6 -4 -7 -11 -4 -17 5 -7 1 -9 -9
-5 -8 3 -32 1 -53 -4 -28 -8 -39 -8 -45 3 -7 10 -9 9 -9 -4 0 -10 -5 -18 -11
-18 -6 0 -9 9 -6 20 3 13 0 20 -9 20 -8 0 -14 -5 -14 -11 0 -8 -5 -8 -15 1
-11 10 -15 10 -15 0 0 -6 -6 -10 -12 -7 -7 2 -13 10 -13 17 0 13 -23 22 -58
21 -10 0 -21 7 -24 15 -3 8 -14 14 -25 14 -10 0 -17 4 -14 9 3 4 -6 13 -21 20
-20 9 -28 9 -33 0 -6 -8 -9 -8 -15 1 -6 9 -9 9 -15 -1 -5 -7 -2 -18 6 -26 8
-8 14 -19 14 -24 0 -16 -35 -5 -36 11 -1 8 -2 21 -3 28 0 6 -9 12 -18 13 -14
0 -12 3 5 10 13 5 20 13 17 19 -8 13 -48 13 -62 -1 -6 -6 -17 -12 -24 -13 -25
-5 -69 -29 -69 -38 0 -16 -29 -8 -43 12 -8 11 -17 17 -20 13 -4 -3 -7 1 -7 10
0 21 27 12 33 -11 3 -10 5 -2 6 16 1 37 18 42 31 10 8 -22 9 -22 9 4 1 23 -2
26 -26 22 -16 -3 -36 -6 -45 -7 -13 -1 -18 -10 -19 -32 -1 -29 -1 -29 -8 -5
l-8 25 -5 -25 c-4 -19 -6 -15 -7 15 -2 22 -5 34 -8 28 -7 -19 -23 -16 -23 5 0
14 -2 15 -10 2 -8 -13 -10 -12 -11 5 -1 11 -5 4 -9 -15 l-7 -35 -2 38 c0 20
-5 37 -11 37 -5 0 -10 -4 -10 -10 0 -5 -7 -10 -16 -10 -8 0 -12 5 -9 10 8 13
-1 13 -25 0 -17 -9 -18 -8 -13 7 6 16 5 16 -11 4 -15 -13 -19 -13 -28 0 -8 12
-9 12 -5 -1 2 -8 1 -24 -3 -35 -5 -15 -8 -9 -13 23 -5 28 -12 42 -23 42 -8 0
-14 7 -12 16 2 10 -3 19 -11 22 -10 3 -12 0 -8 -11 6 -17 -25 -42 -37 -30 -3
3 -6 31 -7 62 -1 56 -1 56 -12 21 l-11 -35 -6 35 c-7 35 -7 35 -9 5 -1 -16 -6
-37 -12 -45 -8 -11 -9 0 -6 43 2 32 0 52 -4 45 -5 -7 -9 -33 -10 -58 -1 -37
-2 -41 -9 -20 -4 14 -6 36 -4 50 4 22 3 22 -4 5 -5 -11 -12 -42 -16 -70 -6
-41 -5 -48 5 -37 18 17 29 15 29 -5 0 -13 2 -15 8 -5 9 14 42 6 42 -10 0 -5
-4 -6 -10 -3 -6 4 -10 -7 -10 -24 0 -17 -4 -31 -10 -31 -5 0 -7 8 -3 18 5 14
3 15 -8 5 -7 -7 -18 -13 -23 -13 -6 0 -4 5 4 10 13 8 12 10 -3 10 -46 0 -180
123 -260 237 l-44 63 1 -44z"/>
</g>
</svg>
